# xmcd
#
# Track frame offsets:
#	150
#	20980
#	41236
#	62145
#	79590
#	101849
#	121064
#	138482
#	155303
#	172177
#	185649
#	200460
#	220562
#	240036
#	256669
#	274807
#
# Disc length: 3863 seconds
#
# Revision: 0
# Processed by: cddbd v1.5.2PL0 Copyright (c) Steve Scherf et al.
# Submitted via: audiograbber 1.83.01
#
DISCID=df0f1510
DTITLE=Various Artist - Sylt - Finest Lounge Music No.1 (2)
DYEAR=2002
DGENRE=Chill
TTITLE0=Nightcruzer - Lazy Day
TTITLE1=Stargazer - Eastend
TTITLE2=Eduard Arroya - Ring ..Hello (Close Your Eyes
TTITLE3=Chambre Individuelle - Journey To A Friend
TTITLE4=Communa De Musica - Ramonesque interlude
TTITLE5=AKMusique - And Suddenly It's Moring
TTITLE6=Frame By Frame - Seaguls
TTITLE7=Flunk - Sugar Planet
TTITLE8=Velocity - Among The Reed
TTITLE9=Dreamwaver - Delicate Emotions (Island Mix)
TTITLE10=Joe De Mar - Joy
TTITLE11=Sunrise - Batida De Noche
TTITLE12=Nightwalker - Nightwalk
TTITLE13=Mindprint Traveller - Sentimentu
TTITLE14=Comatrixx - Champagner and Lobster
TTITLE15=Lemongrass - Elements
EXTD=YEAR: 2002
EXTT0=
EXTT1=
EXTT2=
EXTT3=
EXTT4=
EXTT5=
EXTT6=
EXTT7=
EXTT8=
EXTT9=
EXTT10=
EXTT11=
EXTT12=
EXTT13=
EXTT14=
EXTT15=
PLAYORDER=
